<?xml version="1.0" encoding="utf-8"?>
<!-- Generator: Adobe Illustrator 21.0.0, SVG Export Plug-In . SVG Version: 6.00 Build 0)  -->
<svg version="1.1" xmlns="http://www.w3.org/2000/svg" xmlns:xlink="http://www.w3.org/1999/xlink" x="0px" y="0px"
	 viewBox="0 0 1366 768" style="enable-background:new 0 0 1366 768;" xml:space="preserve">
<style type="text/css">
	.st0{fill:#FFFFFF;}
</style>
<g id="Warstwa_1">
	<path d="M638,504H514c-5.5,0-10-4.5-10-10V370c0-5.5,4.5-10,10-10h124c5.5,0,10,4.5,10,10v124C648,499.5,643.5,504,638,504z"/>
</g>
<g id="Warstwa_2">
	<path class="st0" d="M593,477.7h-33c-3.8,0-7-3.1-7-7v-4.8c0-3.8,3.2-7,7-7h33c3.8,0,7,3.2,7,7v4.8
		C600,474.5,596.8,477.7,593,477.7z"/>
	<path class="st0" d="M588,422.3V459c0,3.9-3.2,7-7,7h-8.2c-3.8,0-7-3.1-7-7v-36.7c0-3.9,3.2-7,7-7h8.2
		C584.9,415.3,588,418.5,588,422.3z"/>
</g>
<g id="Warstwa_4">
	<path class="st0" d="M581,434.1h-21c-3.8,0-7-3.2-7-7v-4.8c0-3.9,3.2-7,7-7h21c3.8,0,7,3.1,7,7v4.8C588,431,584.9,434.1,581,434.1z
		"/>
</g>
<g id="Warstwa_3">
</g>
<g id="Warstwa_5">
	<circle class="st0" cx="576.5" cy="394.5" r="13.5"/>
</g>
</svg>
