<?xml version="1.0" encoding="utf-8"?>
<!-- Generator: Adobe Illustrator 21.0.0, SVG Export Plug-In . SVG Version: 6.00 Build 0)  -->
<svg version="1.1" xmlns="http://www.w3.org/2000/svg" xmlns:xlink="http://www.w3.org/1999/xlink" x="0px" y="0px"
	 viewBox="0 0 1366 768" style="enable-background:new 0 0 1366 768;" xml:space="preserve">
<style type="text/css">
	.st0{fill:#FFFFFF;}
</style>
<g id="Warstwa_2">
	<path d="M705,148.8c0,0-227-2.8-245,196.2c0,0-8.2,185,245,199c0,0,80,75,145,65c0,0,1.3-1,0-3.9s-41-53.8-31.7-79.1
		c0,0,139.9-49.3,139.9-182C958.2,344,954.3,156.9,705,148.8z"/>
	<path d="M446.5,357.5c0,0-110.2,118.5,53.2,210.5c0,0,2.7,21-18.7,49c0,0,27,11,87.7-36.3c0,0,60.3,8.7,120.3-25.7
		C689,555,470,549,446.5,357.5z"/>
</g>
<g id="Warstwa_3">
	<path class="st0" d="M537.1,423.7c3.1-10.1,11.8-30.1,33.1-41.7c3-1.6,3.3-5.7,0.8-7.9c-5.9-5.2-13.9-15.3-14.5-32.2
		c-1-27.3,27.8-40.3,41.3-40.5c13.5-0.2,41.9,11.7,42.5,40.1c0,0.1,0,0.2,0,0.4c0,1.1-0.3,6.9-1.5,11.9c-0.3,1.2-1,2.2-2,2.9
		c-6.7,4.5-33.1,24.8-40.8,69.5c-0.4,2.3-2.4,4.1-4.8,4.1h-49.4C538.5,430,536.1,426.8,537.1,423.7z"/>
	<path class="st0" d="M601.3,430c0,0,7.7-60.7,70.3-86c0,0-35.7-21.3-33.3-61c2.3-39.7,34.3-65,68.3-65.3c34-0.3,67.3,24.7,68.7,68
		c1.3,43.3-33.7,58-33.7,58s62.3,23.3,70,86.3H601.3z"/>
	<path class="st0" d="M876.1,423.7c-3.1-10.1-11.7-30.1-33.2-41.8c-3-1.6-3.5-5.6-0.9-7.8c6-5.2,14-15.3,14.6-32.3
		c1-27.3-27.8-40.3-41.3-40.5C802,301,773.6,313,773,341.3c0,0.1,0,0.2,0,0.4c0,1.1,0.3,6.9,1.5,11.9c0.3,1.2,1,2.2,2,2.9
		c6.6,4.5,33.1,24.7,40.8,69.5c0.4,2.3,2.4,4,4.8,4h49.5C874.8,430,877.1,426.8,876.1,423.7z"/>
</g>
</svg>
