<?xml version="1.0" encoding="utf-8"?>
<!-- Generator: Adobe Illustrator 21.0.0, SVG Export Plug-In . SVG Version: 6.00 Build 0)  -->
<svg version="1.1" id="Capa_1" xmlns="http://www.w3.org/2000/svg" xmlns:xlink="http://www.w3.org/1999/xlink" x="0px" y="0px" fill="rgb(38, 38, 38)"
	 viewBox="0 0 384 384" style="enable-background:new 0 0 384 384;" xml:space="preserve">
<g>
	<g>
		<g>
			<path d="M0,42.7l0,298.7C0,364.9,19.1,384,42.7,384h298.7c23.6,0,42.7-19.1,42.7-42.7V256h-42.7v85.3H42.7V42.7h298.7V128H384
				V42.7C384,19.1,364.9,0,341.3,0L42.7,0C19.1,0,0,19.1,0,42.7z"/>
			<polygon points="177.7,213.3 384,213.3 384,170.7 177.7,170.7 232.9,115.5 202.7,85.3 96,192 202.7,298.7 232.9,268.5 			"/>
		</g>
	</g>
</g>
</svg>
