<?xml version="1.0" encoding="utf-8"?>
<!-- Generator: Adobe Illustrator 21.0.0, SVG Export Plug-In . SVG Version: 6.00 Build 0)  -->
<svg version="1.1" id="Warstwa_1" xmlns="http://www.w3.org/2000/svg" xmlns:xlink="http://www.w3.org/1999/xlink" x="0px" y="0px"
	 viewBox="0 0 1366 768" style="enable-background:new 0 0 1366 768;" xml:space="preserve">
<style type="text/css">
	.st0{display:none;}
	.st1{display:inline;fill:none;enable-background:new    ;}
</style>
<g id="Warstwa_1_1_" class="st0">
	
		<image style="display:inline;overflow:visible;" width="2000" height="2000" xlink:href="2C22EE09.png"  transform="matrix(0.2361 0 0 0.2361 413.054 120.0528)">
	</image>
	<path class="st1" d="z"/>
</g>
<g>
	<g id="palette">
		<path d="M632.5,153C505,153,403,255,403,382.5S505,612,632.5,612c20.4,0,38.3-17.8,38.3-38.3c0-10.2-2.5-17.8-10.2-25.5
			c-5.1-7.7-10.2-15.3-10.2-25.5c0-20.4,17.9-38.3,38.3-38.3h45.9c71.4,0,127.5-56.1,127.5-127.5C862,244.8,760,153,632.5,153z
			 M492.3,382.5c-20.4,0-38.3-17.9-38.3-38.3s17.9-38.3,38.3-38.3c20.4,0,38.3,17.9,38.3,38.3S512.7,382.5,492.3,382.5z
			 M568.8,280.5c-20.4,0-38.3-17.9-38.3-38.3s17.8-38.3,38.3-38.3s38.3,17.9,38.3,38.3S589.2,280.5,568.8,280.5z M696.3,280.5
			c-20.4,0-38.3-17.9-38.3-38.3s17.8-38.3,38.3-38.3s38.3,17.9,38.3,38.3S716.7,280.5,696.3,280.5z M772.8,382.5
			c-20.4,0-38.3-17.9-38.3-38.3s17.8-38.3,38.3-38.3s38.3,17.9,38.3,38.3S793.2,382.5,772.8,382.5z"/>
	</g>
</g>
<path d="M855.3,432.3c0,0,19.6,1.5,38.9,13.5c0,0,47.9-161.2,71-264c0,0-0.3-1.9-1.7-2.1c-1.4-0.3-1.4-0.8-3,0.6
	C959,181.7,855.9,418.6,855.3,432.3z"/>
<path d="M853,439.2c0,0-15,68.9-17.1,76c0,0,12.5-1.2,22.5,8.1c0,0,14.6-33.9,33.1-70.6C891.6,452.7,878.1,442.9,853,439.2z"/>
<path d="M845.7,520.9c0,0-14.9-6-29.1,4.9c-14.2,11-12,27.6-12,27.6s-0.9,20.5-11.2,31.5c0,0-5.9,8.5-22.4,14.8c0,0-2.7,2.3,0.9,4.4
	c0,0,52-9.7,70.8-21.2c0,0,27.4-13.1,24-36.6C866.9,546.4,865.3,528.3,845.7,520.9z"/>
</svg>
