<?xml version="1.0" encoding="utf-8"?>
<!-- Generator: Adobe Illustrator 21.0.0, SVG Export Plug-In . SVG Version: 6.00 Build 0)  -->
<svg version="1.1" xmlns="http://www.w3.org/2000/svg" xmlns:xlink="http://www.w3.org/1999/xlink" x="0px" y="0px"
	 viewBox="0 0 1515 672.6" style="enable-background:new 0 0 1515 672.6;" xml:space="preserve">
<style type="text/css">
	.st0{fill:#38737C;}
	.st1{opacity:0.62;fill:url(#SVGID_1_);}
	.st2{opacity:0.5;fill:url(#SVGID_2_);}
	.st3{fill:#152D30;}
	.st4{display:none;}
	.st5{display:inline;opacity:0.5;fill:url(#SVGID_3_);}
	.st6{fill:#0E1F23;}
	.st7{fill:#152B2E;}
	.st8{fill:#0F2125;}
	.st9{fill:#33282F;}
	.st10{fill:#6A4228;}
	.st11{fill:#FFCDA1;}
	.st12{fill:#FE0000;}
	.st13{fill:#FECA9C;}
	.st14{fill:#7B7371;}
	.st15{fill:#E30001;}
	.st16{fill:#FEBE8D;}
	.st17{fill:#41C3F4;}
	.st18{fill:#0096CA;}
	.st19{fill:#00A6E1;}
	.st20{fill:#FFFFFF;}
	.st21{fill:#E9ECF4;}
	.st22{fill:#68CFF8;}
	.st23{fill:#D9DFE4;}
	.st24{fill:#DFE2EC;}
</style>
<g id="tlo">
	<rect class="st0" width="1514.9" height="460"/>
</g>
<g id="cienniebieskidol">
	<linearGradient id="SVGID_1_" gradientUnits="userSpaceOnUse" x1="757.4375" y1="34.5716" x2="757.4375" y2="541.0004">
		<stop  offset="0" style="stop-color:#0B0B0B;stop-opacity:0"/>
		<stop  offset="0.6832" style="stop-color:#050505;stop-opacity:0.6832"/>
		<stop  offset="1" style="stop-color:#000000"/>
	</linearGradient>
	<rect x="0" y="2.1" class="st1" width="1514.9" height="536.9"/>
</g>
<g id="cienniebgora">
	
		<linearGradient id="SVGID_2_" gradientUnits="userSpaceOnUse" x1="618.3835" y1="227.6808" x2="618.3835" y2="688.9651" gradientTransform="matrix(-1 0 0 -1 1375.821 687.1431)">
		<stop  offset="0" style="stop-color:#0B0B0B;stop-opacity:0"/>
		<stop  offset="0.6832" style="stop-color:#050505;stop-opacity:0.6832"/>
		<stop  offset="1" style="stop-color:#000000"/>
	</linearGradient>
	<polygon class="st2" points="0,0 1514.9,0 1514.9,489 0,489 	"/>
</g>
<g id="Warstwa_26">
	<rect y="460.1" class="st3" width="1515" height="88"/>
</g>
<g id="Warstwa_29" class="st4">
	<linearGradient id="SVGID_3_" gradientUnits="userSpaceOnUse" x1="757.4844" y1="630.116" x2="757.4844" y2="444.0995">
		<stop  offset="0" style="stop-color:#0B0B0B;stop-opacity:0"/>
		<stop  offset="1" style="stop-color:#000000"/>
	</linearGradient>
	<rect x="0" y="460.1" class="st5" width="1515" height="88"/>
</g>
<g id="Warstwa_25">
	<polygon class="st3" points="0.1,544.7 0.1,672.8 1562.4,544 	"/>
</g>
<g id="cienziomek">
	<path class="st6" d="M182.5,497.8c0,0,23.7-4.4,38.3-4.1c0,0,15.7,5,60.3,4c0,0,112.3-10.3,167.3,15.3c0,0,47-0.3,52.7,5.3
		c0,0,256.7-3.3,260,13.7c0,0,4.3,14.5-206.7,11.5l-10-3.5c0,0-53.7-4.3-56.7-3.3c0,0-6.3-1.7-7.3-1.7c0,0-41.7-0.3-43.7-3.3
		c0,0-3.3-0.7-9.3,0.3c0,0-7.3,1.7-15.7,3.3c0,0-55.7-0.3-87.7-1c0,0-0.3-1.7-3.7,2.3c0,0,16.7,1.3,18.3,2.3c0,0,5,2.2,8.3,4.9
		l1.8,1.9c0,0-2.3,0.3-5.8-1c0,0-27.5-5-31.8-3.8c0,0-12.8-2.2-16.7-1.5c0,0-10.2-2.7-12.3-2.5c0,0,1.8,1.3-16.3,1
		c0,0-63.8-5.3-75.5-4.5l1.8,2.3c0,0-4.8-0.1-10-1.1l-3.8-5.6l42.8,0.3l-0.3-2.3c0,0-17.5-5-23-8.3l-15.5,0.6V497.8z"/>
</g>
<g id="dziurywcieniu">
	<path class="st7" d="M266,522.1c0,0,13,2,15.5,3.3l3.5,2.8c0,0-10.3,1.3-14.5,1.3l-4.5-2V522.1z"/>
	<path class="st7" d="M303.3,525.3c0,0,8.1-0.3,12.4,1.8c0,0-8.1,0.5-10.3,0L303.3,525.3z"/>
	<path class="st7" d="M307.2,535.1c0,0,3.2,0.3,5.8,0c0,0,0.1-0.6-1.3-1.3C311.7,533.8,308.4,534.1,307.2,535.1z"/>
</g>
<g id="cienbutelka">
	<path class="st8" d="M264.8,556.4l188.7,7.2c0,0,17.5-1,35,9l72,3c0,0,7.2-0.2,11.3,0.8c0,0-4.3,8-5.8,8.5c0,0-85.5-2.2-87.5-2.2
		c0,0-12.3,3.8-32,5.3l-217.5-8L264.8,556.4z"/>
</g>
<g id="butelka">
	<path d="M237,398.9c0,0-1.9-0.2-2.3,4.3h-0.7v5.7h1.5l0,36.3c0,0-7,1.6-13.8,17.9l-0.3,112c0,0,0.2,2.8,5.3,4.7h31.7
		c0,0,5.4,0.5,7.6-4.7V463.6c0,0-2.5-13.3-13.8-18.3v-36.5h1l-0.2-5.6h-0.8c0,0,0.1-5.3-1.4-4.3"/>
</g>
<g id="krzeslo">
	<path class="st9" d="M76.4,200.4l-41.9,2.7c0,0-3.3,89-3.3,103c0,0-1.3,50,50.7,50l9.3,158.7l91.3,4.7v-156c0,0,84,0,74-24.7
		L76.4,200.4z"/>
</g>
<g id="nogi">
	<path d="M113.8,492.8c0,0,9.2-40.2-5.8-111.7c0,0-5-23-2.5-44c0,0-23-7.5-36.5-8.5c0,0-11.1-2-15.8-23c0,0,0.8-25.5,23.8-35
		c0,0,1.5-0.5,11.5-8h22.6c0,0-3.1-9.8,1.4,5.8c0,0,7.5,6.6,25.5,6.7c0,0,25.7,4,49.7-11.7c0,0,55.2,5.7,64.7,4.7l-5,6l11-0.5
		c0,0,6,4.5,20,5c0,0,6,1.5,19-5c0,0,7.5,6.5,22.5,2.5c0,0,14,7.5,16,29c0,0,3,16,0,53c0,0-0.5,11-1,26c0,0,5,35.5,4.5,54
		c0,0,1,24.5-3,37.5c0,0,16,19.5,33.5,21.5c0,0,13-1.5,15,10c0,0,11,11.5-42,11.5c0,0-18-9.5-25.5-6.5H290c0,0-6.5,0-8-11
		c0,0-0.5-23.5,4-27.5c0,0-3-72-7-73.5c0,0-4-15-0.5-63.5c0,0-80.5,5-117,6c0,0,4.5,89,5.5,95c0,0,7.5,55,3,65l-5.5-0.5
		c0,0,4.5,14.5,19.5,35c0,0,2.5,8-16,10.5c0,0-29,1.5-32.5,0c0,0-9.5-5-14.5-21c0,0-2-8-0.5-24.5L113.8,492.8z"/>
</g>
<g id="klaki">
	<path class="st10" d="M184.2,63.5c0,0-4.8-0.1-6-5.3c0,0,1.7,1.5,7.5,2L184.2,63.5z"/>
	<path class="st10" d="M190.2,44.3c0,0-5.8-6.5-7.8-12.1c0,0,3.6,5.8,10,8.3L190.2,44.3z"/>
	<path class="st10" d="M205.1,25.9c0,0-4.1-6-14-5.4c0,0,13.8-6.3,25.8,1.7L205.1,25.9z"/>
	<path class="st10" d="M228.1,22.4c0,0,3.8-3.4,2.8-7c0,0,4.2,0.3,3.9,8.5L228.1,22.4z"/>
	<path class="st10" d="M244.4,27.5c0,0,2.9-2.8,8.8-2.3c0,0-5.4,1.8-6.4,3.3L244.4,27.5z"/>
	<path class="st10" d="M258.6,41.2c0,0,9.9,0.8,13-4.1c0,0,5.4,5.6-7.8,11.5L258.6,41.2z"/>
	<path class="st10" d="M267,60.1c0,0,3.5-0.4,4.8-1.1c0,0,1.2,0.7-3.6,2.9L267,60.1z"/>
</g>
<g id="twarz">
	<path class="st11" d="M204.5,88.8l-3.7-2.5l-1-11.3c0,0-1-4.8-7.5-6.2c0,0-7,2.3-6.3,7.5l-0.8,9.8l-3.2,0.2c0,0,0.7,2.3,0,3.8
		c0,0-5,13-7.3,15.2c0,0,6.5,18,20,30.2l0.7,33.3l16-30.7c0,0,14.7,7.5,17.5,5.8c0,0,2.7-2,3-3.3c0,0,1.7-3.5,1.5-4.3
		c0,0,0.3,1,0.8-3.7c0,0,3.2-1.7,3-2.8l0-3.5c0,0,4.5-1,4.5-2.3c0,0,0.8-1.5,0-3.2c0,0,1.5,0.5,4.3,0.1c0.3,0,0.7-0.1,1-0.1
		c0.8,0,2.8,0,3.3-1c0.4-0.8,0.3-0.3,0.8-1.5c0.4-0.9,1.1-2.7,1.1-3.3l0.3-2.1l0.2-1.3c0,0,1-7.5,0.5-10.5c-0.1-0.3,0.2-0.7,0.5-0.7
		c1.3-0.1,4.2-0.8,6.5-4.8c0,0,0.7-8.3,1.2-9.7c0,0,2.8-10.1,3.8-10.2c1,0,2.9-5.5,2.9-5.5s-14.5,6.3-42.4-4.4l-6.3,13.9l-9.2,0.3
		L204.5,88.8z"/>
</g>
<g id="wlosy">
	<path class="st10" d="M204.5,88.8l-3.7-2.5l-1-11.3c0,0-2.5-5.8-7.5-6.2c0,0-6.5,2-6.3,7.5l-0.8,9.8l-3.2,0.2
		c0,0,2.7-34.8,7.8-42.8c5.2-8,10-27.5,44.7-20c0,0,21.5,2.3,30.7,28.8c0,0,4.5,15,10.5,21.7c0,0-6.8,1.8-10.5,1.8v-2.8
		c0,0-13.3,2.2-39.7-6.8c-6.2,13.7-6.2,13.7-6.2,13.7l-9.2,0.3L204.5,88.8z"/>
</g>
<g id="koszulka">
	<path class="st12" d="M182,88.3c0,0-9.2-4-21.2,15.2c0,0-53.1-0.1-70.8,46.2c0,0-8.5,20.8-8,29.3c0,0-12.8,50.5-15,54.3
		c0,0-14.8,38.5-13.8,40c0,0-4.6,18,0,32.5c0,0,0.6,1.2,2-1.2c0,0-0.8-12.7,4.3-19.5c0,0,6.2-8.2,10.8-9.8c0,0,13.8-8.3,18.7-12.8
		h22.5l85.7,1.2c0,0,5-8.3,5-9.2s27-46.8,26.2-48l0.8-0.2c0,0,2.2,7.7,3.7,8.3c0,0,43.3-3,43.8-5.7c0,0-5.5-23.2-5.7-24.7
		c0,0,0.2-25.3-1.5-26.5c0,0-4.5-24.8-27.8-33.7c0,0,0.3,1.3-4.5,2.3c0,0,1.3,4.8-3,6.3c0,0-1,9.7-5.3,11.3c0,0-3,2-17.5-5.8
		l-16,30.7l-0.7-33.3c0,0-11-7.7-20-30.2C174.7,105.3,183.8,90.6,182,88.3z"/>
</g>
<g id="rece">
	<path class="st13" d="M150.2,212.8c0,0,7.7-6.7-56-9.7c0,0-0.3,19.7,2.7,24.3c0,0,17.7,40.7,15.7,41c0,0,7,5.3,16.7,6
		c0,0,22.7,2.3,33,0c0,0,6.3,4.3,58-32.7c0,0,18.4,2.7,23.4,2.7c0,0,0,5.7,9.7,22.3c0,0,4,9.7,17.3,11.8c0,0,15.7,3.5,26.7-5.2
		c0,0,2.7,2.3,7,3.3c0,0,11.7,1.3,15.7-0.3c0,0,12-9.7,13-14.3c0,0,4.3-15,3.3-16.3l-2.3-4.6l2.5-2.3v-3.2c0,0-4,3-4.5,4.2
		c0,0-9.7-1.8-14-0.2c0,0-4,1.5-3.2,4.5c0,0-1.2,3.2,7.7,4l-0.2,1.7c0,0-14.3-3.7-20.7-2.2c0,0-2.7,0.3-2.3,5.3l-5,0.7
		c0,0-5.3,2.7-1.2,7.8c0,0,4.2,5,7.7,7.3c3.5,2.3-36.3-9.3-28.3-16.2l-1.7-4.3l14.5-15c0,0-2.3-1-3.8-8c0,0,4.8,2.3,8.5,3
		c0,0,4.2-4.7,5.2-6.3c0,0-15.8-11.7-20.8-12.3c0,0-0.3,1.3-6.2-0.7c0,0-6.8-3-13.3,0.2c0,0-19.3,6-21.7,5c0,0-45.7,15.8-62.3,18
		c0,0-16.7,0.2-20.5-0.2C150.2,232.1,151.2,213.6,150.2,212.8z"/>
</g>
<g id="tablet">
	<path class="st14" d="M310.8,205.8l-63.7,68.5l53.8-5c0,0-7.2-6.2-9.8-11.7c0,0,0.7-3,3.8-4.2h4.2l-0.2-3.8c0,0,1.5-2.3,3-1.8
		c0,0,1.7-2.5,19.8,2.2v-1.3c0,0-7-0.3-7.5-3.7c0,0-1.2-4,5.5-5.8c0,0,6.2-0.5,11,0.9c0,0,3.2-2.3,4.7-3.6l28.5-28L310.8,205.8z"/>
</g>
<g id="cieniekosz">
	<path class="st15" d="M189.7,146.9h-13.8c0,0,7.8-13,11.5-14.3C187.3,132.6,190.5,132.6,189.7,146.9z"/>
	<path class="st15" d="M218,154.1h-8.7c0,0,3.8-7.2,6.7-9C216,145.1,219,146.3,218,154.1z"/>
	<path class="st15" d="M148.5,201.3c0,0-4.2-51.3-12.3-58.5C136.2,142.8,146.8,143.4,148.5,201.3z"/>
</g>
<g id="cienszyja">
	<polygon class="st16" points="197.7,131.8 196.8,162.4 210,137.8 	"/>
</g>
<g id="kolonieb">
	<ellipse class="st17" cx="603.7" cy="234.3" rx="203.9" ry="202.5"/>
</g>
<g id="cienkolo2">
	<path class="st18" d="M444.9,267.9l47,136.2c0,0,112.8,81.9,237.1-10.1l46-162.3L444.9,267.9z"/>
</g>
<g id="cienkolo1">
	<path class="st19" d="M774.8,231.1l12.5,91.2c0.4,1.3-21,43.7-58.4,71.7L774.8,231.1z"/>
	<path class="st19" d="M433.5,234.8L421.4,325c0,0,22.1,48.1,70.5,79.1L433.5,234.8z"/>
</g>
<g id="dymek">
	<ellipse class="st20" cx="604.2" cy="218.1" rx="171.7" ry="134.7"/>
</g>
<g id="doldymek">
	<path class="st20" d="M564.2,348.1c0,0-9.7,43.3-31.7,67c0,0,32.7,7,82.7-63l-24.3-16L564.2,348.1z"/>
</g>
<g id="cieniedymek">
	<path class="st21" d="M567.1,246.4h-25.6c-1.1,0-2-0.9-2-2v-25.6c0-1.1,0.9-2,2-2h25.6c1.1,0,2,0.9,2,2v25.6
		C569.1,245.5,568.2,246.4,567.1,246.4z"/>
	<path class="st21" d="M619.8,246.4h-25.6c-1.1,0-2-0.9-2-2v-25.6c0-1.1,0.9-2,2-2h25.6c1.1,0,2,0.9,2,2v25.6
		C621.8,245.5,620.8,246.4,619.8,246.4z"/>
	<path class="st21" d="M672.3,246.4h-25.6c-1.1,0-2-0.9-2-2v-25.6c0-1.1,0.9-2,2-2h25.6c1.1,0,2,0.9,2,2v25.6
		C674.3,245.5,673.3,246.4,672.3,246.4z"/>
</g>
<g id="kwaddymek">
	<path class="st22" d="M564.8,242.8h-25.6c-1.1,0-2-0.9-2-2v-25.6c0-1.1,0.9-2,2-2h25.6c1.1,0,2,0.9,2,2v25.6
		C566.8,241.9,565.8,242.8,564.8,242.8z"/>
	<path class="st22" d="M616.8,242.8h-25.6c-1.1,0-2-0.9-2-2v-25.6c0-1.1,0.9-2,2-2h25.6c1.1,0,2,0.9,2,2v25.6
		C618.8,241.9,617.8,242.8,616.8,242.8z"/>
	<path class="st22" d="M669.1,242.8h-25.6c-1.1,0-2-0.9-2-2v-25.6c0-1.1,0.9-2,2-2h25.6c1.1,0,2,0.9,2,2v25.6
		C671.1,241.9,670.2,242.8,669.1,242.8z"/>
</g>
<g id="cienszarydymek">
	<path class="st23" d="M532.8,414.4c0,0,29,8.7,82.4-61.9c0,0,72.6,1.5,124.6-51.9c0,0,30.2-22.9,36.2-75.5c0,0,8-61-58.5-108
		c0,0,62,43,53,107c0,0-1,64.5-82.5,105c0,0-39.3,17-74.8,17.5c0,0-0.6-0.4-2.4,1.4c0,0-39,55.1-71,59.6L532.8,414.4z"/>
	<path class="st24" d="M564.3,349.1c0,0-35.4-5.2-69.4-27c-25.6-16.4-47.6-38.4-57.9-73.3c0,0,29.7,81.5,127.3,95V349.1z"/>
</g>
</svg>
